<svg xmlns="http://www.w3.org/2000/svg" width="128" height="128" viewBox="0 0 128 128" role="img" aria-label="Logo">
  <defs>
    <linearGradient id="g" x1="0" y1="0" x2="1" y2="1">
      <stop offset="0" stop-color="#fb923c"/>
      <stop offset="1" stop-color="#f97316"/>
    </linearGradient>
  </defs>
  <rect width="128" height="128" rx="28" fill="url(#g)"/>
  <path d="M38 72c10 14 25 22 42 22 7 0 14-1 20-4l-7-8c-4 1-9 2-13 2-12 0-22-5-29-14-1-2-2-4-2-6 0-6 5-11 11-11 4 0 7 2 9 5l8-7c-4-6-10-9-17-9-12 0-22 10-22 22 0 3 1 6 2 8z" fill="#fff" opacity="0.95"/>
  <circle cx="88" cy="46" r="10" fill="#fff" opacity="0.9"/>
</svg>
